<?xml version="1.0" encoding="UTF-8" standalone="no"?>
<!-- Created with Inkscape (http://www.inkscape.org/) -->

<svg
   xmlns:dc="http://purl.org/dc/elements/1.1/"
   xmlns:cc="http://creativecommons.org/ns#"
   xmlns:rdf="http://www.w3.org/1999/02/22-rdf-syntax-ns#"
   xmlns:svg="http://www.w3.org/2000/svg"
   xmlns="http://www.w3.org/2000/svg"
   xmlns:sodipodi="http://sodipodi.sourceforge.net/DTD/sodipodi-0.dtd"
   xmlns:inkscape="http://www.inkscape.org/namespaces/inkscape"
   width="150mm"
   height="150mm"
   viewBox="0 0 150 150"
   version="1.1"
   id="svg8406"
   inkscape:export-filename="/home/severine/Project/Hugo/Chouxchoux/themes/beautifulhugo/static/img/avatar-icon.jpg.png"
   inkscape:export-xdpi="21.166666"
   inkscape:export-ydpi="21.166666"
   inkscape:version="0.92.3 (2405546, 2018-03-11)"
   sodipodi:docname="icon.svg">
  <defs
     id="defs8400">
    <clipPath
       clipPathUnits="userSpaceOnUse"
       id="clipPath616">
      <path
         d="m 4065.08,1049.55 h -134.32 v 151.6 h 119.32 v -15 15 h 15 v -25.5 -38.19 -87.91 m -104.32,121.6 v -91.6 h 74.32 v 91.6 h -74.32"
         id="path614"
         inkscape:connector-curvature="0" />
    </clipPath>
    <radialGradient
       fx="0"
       fy="0"
       cx="0"
       cy="0"
       r="1"
       gradientUnits="userSpaceOnUse"
       gradientTransform="matrix(10904.5,0,0,-6676.61,7000,4900)"
       spreadMethod="pad"
       id="radialGradient628">
      <stop
         style="stop-opacity:1;stop-color:#4b1636"
         offset="0"
         id="stop618" />
      <stop
         style="stop-opacity:1;stop-color:#491535"
         offset="0.171149"
         id="stop620" />
      <stop
         style="stop-opacity:1;stop-color:#391328"
         offset="0.442183"
         id="stop622" />
      <stop
         style="stop-opacity:1;stop-color:#3a122a"
         offset="0.988142"
         id="stop624" />
      <stop
         style="stop-opacity:1;stop-color:#3a122a"
         offset="1"
         id="stop626" />
    </radialGradient>
    <clipPath
       clipPathUnits="userSpaceOnUse"
       id="clipPath594">
      <path
         d="m 3960.76,1079.55 h 74.3203 v 91.6016 H 3960.76 Z"
         id="path592"
         inkscape:connector-curvature="0" />
    </clipPath>
    <radialGradient
       fx="0"
       fy="0"
       cx="0"
       cy="0"
       r="1"
       gradientUnits="userSpaceOnUse"
       gradientTransform="matrix(10904.5,0,0,-6676.61,7000,4900)"
       spreadMethod="pad"
       id="radialGradient606">
      <stop
         style="stop-opacity:1;stop-color:#faccac"
         offset="0"
         id="stop596" />
      <stop
         style="stop-opacity:1;stop-color:#facaab"
         offset="0.171149"
         id="stop598" />
      <stop
         style="stop-opacity:1;stop-color:#fac29c"
         offset="0.442183"
         id="stop600" />
      <stop
         style="stop-opacity:1;stop-color:#fac4a4"
         offset="0.988142"
         id="stop602" />
      <stop
         style="stop-opacity:1;stop-color:#fac4a4"
         offset="1"
         id="stop604" />
    </radialGradient>
    <clipPath
       clipPathUnits="userSpaceOnUse"
       id="clipPath572">
      <path
         d="m 4065.08,1175.65 v 25.5 h -15 v -15 15 h -4.87 c 30.99,53.71 78.2,135.47 107.57,186.34 7.91,13.68 11.14,25.84 11.12,35.56 -0.01,5.98 -1.16,11.06 -3.23,15.49 -2.08,4.43 -5.09,8.29 -9.31,11.69 -8.36,6.76 -22.13,11.68 -41.54,11.67 -61.55,0 -162.25,0 -223.81,0 v 15 15 c 61.56,0 162.26,0 223.81,0 18.27,0 34.43,-3.42 47.89,-10.28 13.43,-6.81 24.08,-17.34 30.13,-30.36 4.06,-8.65 6.07,-18.26 6.06,-28.21 v 0 c -0.02,-16.26 -5.22,-33.35 -15.14,-50.56 -23.61,-40.9 -58.77,-101.79 -87.75,-152 -8.78,-15.21 -17,-29.44 -24.15,-41.84 -0.59,-1.02 -1.18,-2.02 -1.78,-3 m -134.32,0.02 c -0.6,0.98 -1.19,1.98 -1.77,2.98 -7.17,12.41 -15.39,26.65 -24.18,41.88 -28.98,50.2 -64.12,111.06 -87.73,151.96 -9.93,17.21 -15.13,34.3 -15.15,50.57 v 0 c 0,9.94 2.01,19.55 6.06,28.21 4.04,8.65 10.11,16.27 17.7,22.35 15.25,12.2 36.02,18.28 60.32,18.28 v 0 0 -15 -15 c -0.01,0 -0.03,0 -0.05,0 -14.5,0 -25.94,-2.77 -34.19,-7 -8.3,-4.27 -13.48,-9.74 -16.61,-16.35 -2.06,-4.43 -3.22,-9.51 -3.23,-15.49 -0.01,-9.72 3.22,-21.89 11.13,-35.57 29.37,-50.87 76.58,-132.63 107.58,-186.34 h -19.88 v -25.48"
         id="path570"
         inkscape:connector-curvature="0" />
    </clipPath>
    <radialGradient
       fx="0"
       fy="0"
       cx="0"
       cy="0"
       r="1"
       gradientUnits="userSpaceOnUse"
       gradientTransform="matrix(10904.5,0,0,-6676.61,7000,4900)"
       spreadMethod="pad"
       id="radialGradient584">
      <stop
         style="stop-opacity:1;stop-color:#4b1636"
         offset="0"
         id="stop574" />
      <stop
         style="stop-opacity:1;stop-color:#491535"
         offset="0.171149"
         id="stop576" />
      <stop
         style="stop-opacity:1;stop-color:#391328"
         offset="0.442183"
         id="stop578" />
      <stop
         style="stop-opacity:1;stop-color:#3a122a"
         offset="0.988142"
         id="stop580" />
      <stop
         style="stop-opacity:1;stop-color:#3a122a"
         offset="1"
         id="stop582" />
    </radialGradient>
    <clipPath
       clipPathUnits="userSpaceOnUse"
       id="clipPath550">
      <path
         d="m 4045.21,1201.15 h -94.57 c -31,53.71 -78.21,135.47 -107.58,186.34 -7.91,13.68 -11.14,25.85 -11.13,35.57 0.01,5.98 1.17,11.06 3.23,15.49 3.13,6.61 8.31,12.08 16.61,16.35 8.25,4.23 19.69,7 34.19,7 0.02,0 0.04,0 0.05,0 v 15 0 -15 c 61.56,0 162.26,0 223.81,0 19.41,0.01 33.18,-4.91 41.54,-11.67 4.22,-3.4 7.23,-7.26 9.31,-11.69 2.07,-4.43 3.22,-9.51 3.23,-15.49 0.02,-9.72 -3.21,-21.88 -11.12,-35.56 -29.37,-50.87 -76.58,-132.63 -107.57,-186.34"
         id="path548"
         inkscape:connector-curvature="0" />
    </clipPath>
    <clipPath
       clipPathUnits="userSpaceOnUse"
       id="clipPath528">
      <path
         d="m 4007.2,3664.84 c -0.03,0 -0.06,0 -0.08,0 -22.07,0.04 -42.42,8.61 -60.45,20.29 -18.07,11.75 -34.11,26.87 -47.71,41.8 -1.23,1.35 -2.43,2.7 -3.62,4.04 -7.12,8.07 -13.49,16 -18.98,23.23 -13.82,18.22 -22,31.99 -22.22,32.34 l 12.89,7.67 14.68,3.07 -14.68,-3.07 -12.89,-7.67 -1.29,2.15 -127.68,611.87 -6.18,29.62 -21.29,102.04 9.76,5.33 c 0.51,0.27 36.2,19.74 91.46,39.25 55.27,19.48 130.13,39.09 209.39,39.12 41.46,0 84.17,-5.4 125.73,-19.23 l 8.97,-2.99 1.18,-9.38 c 0.01,-0.2 7.75,-61.89 14.64,-153.29 1.02,-13.46 2.02,-27.57 2.97,-42.23 4.23,-65.23 7.56,-141.22 7.56,-218.98 0,-70.21 -2.71,-141.87 -9.96,-208.54 -7.28,-66.68 -19.02,-128.34 -37.55,-178.91 -1.34,-3.64 -2.69,-7.19 -4.06,-10.64 -6.95,-17.54 -14.29,-32.59 -22.03,-45.44 -3.77,-6.27 -7.65,-12.02 -11.61,-17.29 -13.68,-18.12 -28.69,-30.49 -44.7,-37.43 -10.63,-4.61 -21.58,-6.73 -32.25,-6.73 m -126.02,134.99 0.29,-0.47 c 1.08,-1.72 2.69,-4.24 4.79,-7.38 4.18,-6.27 10.31,-15.02 17.9,-24.71 15.14,-19.37 36.37,-42.45 58.85,-56.98 14.93,-9.72 30.04,-15.45 43.94,-15.45 0.06,0 0.11,0 0.17,0 6.84,0.01 13.51,1.28 20.4,4.26 6.88,2.98 14.04,7.74 21.45,15.04 14.83,14.56 30.44,39.58 44.72,78.57 17.26,46.99 28.81,106.66 35.88,171.82 7.1,65.17 9.8,135.86 9.79,205.29 0.01,184.12 -18.92,359.24 -23.81,401.25 -35.13,10.54 -71.44,14.85 -107.24,14.85 -0.06,0 -0.1,0 -0.16,0 -71.88,0 -141.62,-17.49 -194.21,-35.66 -38.53,-13.28 -67.87,-26.89 -82.27,-34.01 l 149.51,-716.42"
         id="path526"
         inkscape:connector-curvature="0" />
    </clipPath>
    <radialGradient
       fx="0"
       fy="0"
       cx="0"
       cy="0"
       r="1"
       gradientUnits="userSpaceOnUse"
       gradientTransform="matrix(10904.5,0,0,-6676.61,7000,4900)"
       spreadMethod="pad"
       id="radialGradient540">
      <stop
         style="stop-opacity:1;stop-color:#4b1636"
         offset="0"
         id="stop530" />
      <stop
         style="stop-opacity:1;stop-color:#491535"
         offset="0.171149"
         id="stop532" />
      <stop
         style="stop-opacity:1;stop-color:#391328"
         offset="0.442183"
         id="stop534" />
      <stop
         style="stop-opacity:1;stop-color:#3a122a"
         offset="0.988142"
         id="stop536" />
      <stop
         style="stop-opacity:1;stop-color:#3a122a"
         offset="1"
         id="stop538" />
    </radialGradient>
    <clipPath
       clipPathUnits="userSpaceOnUse"
       id="clipPath506">
      <path
         d="m 4006.95,3694.84 c -13.9,0 -29.01,5.73 -43.94,15.45 -22.48,14.53 -43.71,37.61 -58.85,56.98 -7.59,9.69 -13.72,18.44 -17.9,24.71 -2.1,3.14 -3.71,5.66 -4.79,7.38 l -0.29,0.47 -149.51,716.42 c 14.4,7.12 43.74,20.73 82.27,34.01 52.59,18.17 122.33,35.66 194.21,35.66 0.06,0 0.1,0 0.16,0 35.8,0 72.11,-4.31 107.24,-14.85 4.89,-42.01 23.82,-217.13 23.81,-401.25 0.01,-69.43 -2.69,-140.12 -9.79,-205.29 -7.07,-65.16 -18.62,-124.83 -35.88,-171.82 -14.28,-38.99 -29.89,-64.01 -44.72,-78.57 -7.41,-7.3 -14.57,-12.06 -21.45,-15.04 -6.89,-2.98 -13.56,-4.25 -20.4,-4.26 -0.06,0 -0.11,0 -0.17,0"
         id="path504"
         inkscape:connector-curvature="0" />
    </clipPath>
    <clipPath
       clipPathUnits="userSpaceOnUse"
       id="clipPath484">
      <path
         d="m 4095.76,3726.29 c 7.74,12.85 15.08,27.9 22.03,45.44 13.77,8.73 24.38,17.14 28.48,20.51 l 279,479.53 c -1.41,1.38 -3,2.91 -4.77,4.59 -8.3,7.86 -20.47,18.8 -35.75,30.95 -30.54,24.32 -73.57,53.44 -122.63,72.59 -29.86,11.67 -61.89,19.65 -94.77,20.95 -0.06,-0.13 -0.12,-0.27 -0.19,-0.4 -1.45,-3.14 -3.26,-7.04 -5.36,-11.65 -0.95,14.66 -1.95,28.77 -2.97,42.23 40.48,-0.14 79.11,-9.48 114.21,-23.19 35.38,-13.83 67.24,-32.12 94.09,-50.33 53.68,-36.43 87.35,-72.6 87.86,-73.13 l 7.58,-8.14 -285.74,-491.12 -5.96,-10.24 -1.25,-2.17 -1.9,-1.64 c -0.22,-0.18 -4.97,-4.28 -12.89,-10.2 -2.93,-2.19 -6.3,-4.63 -10.03,-7.21 -12.88,-8.9 -30.02,-19.51 -49.04,-27.37"
         id="path482"
         inkscape:connector-curvature="0" />
    </clipPath>
    <radialGradient
       fx="0"
       fy="0"
       cx="0"
       cy="0"
       r="1"
       gradientUnits="userSpaceOnUse"
       gradientTransform="matrix(10904.5,0,0,-6676.61,7000,4900)"
       spreadMethod="pad"
       id="radialGradient496">
      <stop
         style="stop-opacity:1;stop-color:#4b1636"
         offset="0"
         id="stop486" />
      <stop
         style="stop-opacity:1;stop-color:#491535"
         offset="0.171149"
         id="stop488" />
      <stop
         style="stop-opacity:1;stop-color:#391328"
         offset="0.442183"
         id="stop490" />
      <stop
         style="stop-opacity:1;stop-color:#3a122a"
         offset="0.988142"
         id="stop492" />
      <stop
         style="stop-opacity:1;stop-color:#3a122a"
         offset="1"
         id="stop494" />
    </radialGradient>
    <clipPath
       clipPathUnits="userSpaceOnUse"
       id="clipPath462">
      <path
         d="m 4117.79,3771.73 c 1.37,3.45 2.72,7 4.06,10.64 18.53,50.57 30.27,112.23 37.55,178.91 7.25,66.67 9.96,138.33 9.96,208.54 0,77.76 -3.33,153.75 -7.56,218.98 2.1,4.61 3.91,8.51 5.36,11.65 0.07,0.13 0.13,0.27 0.19,0.4 32.88,-1.3 64.91,-9.28 94.77,-20.95 49.06,-19.15 92.09,-48.27 122.63,-72.59 15.28,-12.15 27.45,-23.09 35.75,-30.95 1.77,-1.68 3.36,-3.21 4.77,-4.59 l -279,-479.53 c -4.1,-3.37 -14.71,-11.78 -28.48,-20.51"
         id="path460"
         inkscape:connector-curvature="0" />
    </clipPath>
    <clipPath
       clipPathUnits="userSpaceOnUse"
       id="clipPath440">
      <path
         d="m 3850.54,3715.49 c -0.02,0 -0.04,0 -0.06,0 -15.1,0.02 -29.84,3.82 -43.65,9.11 -9.47,3.65 -18.51,8.04 -26.87,12.64 -3.84,2.11 -7.53,4.27 -11.05,6.41 -7.12,4.36 -13.55,8.69 -19.02,12.57 -11.69,8.32 -18.98,14.62 -19.25,14.85 l 9.81,11.35 12.97,7.54 -12.97,-7.54 -9.81,-11.35 -1.9,1.64 -292.95,503.53 7.58,8.14 c 0.38,0.4 19.43,20.84 51.56,46.41 32.15,25.55 77.33,56.3 130.39,77.05 29.12,11.37 60.66,19.74 93.67,22.34 l 6.18,-29.62 c -64.46,-4.07 -125.56,-33.61 -172.27,-64.64 -38.3,-25.37 -66.82,-51.48 -79.81,-64.15 l 279,-479.53 c 0.89,-0.73 2.07,-1.69 3.52,-2.83 3.56,-2.81 8.73,-6.73 15.02,-11.08 12.56,-8.72 29.7,-19.11 46.97,-25.73 11.45,-4.42 22.9,-7.11 32.75,-7.11 0.04,0 0.09,0 0.13,0 6.75,0 12.69,1.17 17.96,3.62 2.75,1.3 5.38,2.94 7.92,5.09 5.49,-7.23 11.86,-15.16 18.98,-23.23 -4.44,-3.71 -9.21,-6.74 -14.24,-9.05 -9.85,-4.59 -20.33,-6.43 -30.56,-6.43"
         id="path438"
         inkscape:connector-curvature="0" />
    </clipPath>
    <radialGradient
       fx="0"
       fy="0"
       cx="0"
       cy="0"
       r="1"
       gradientUnits="userSpaceOnUse"
       gradientTransform="matrix(10904.5,0,0,-6676.61,7000,4900)"
       spreadMethod="pad"
       id="radialGradient452">
      <stop
         style="stop-opacity:1;stop-color:#4b1636"
         offset="0"
         id="stop442" />
      <stop
         style="stop-opacity:1;stop-color:#491535"
         offset="0.171149"
         id="stop444" />
      <stop
         style="stop-opacity:1;stop-color:#391328"
         offset="0.442183"
         id="stop446" />
      <stop
         style="stop-opacity:1;stop-color:#3a122a"
         offset="0.988142"
         id="stop448" />
      <stop
         style="stop-opacity:1;stop-color:#3a122a"
         offset="1"
         id="stop450" />
    </radialGradient>
    <clipPath
       clipPathUnits="userSpaceOnUse"
       id="clipPath418">
      <path
         d="m 3850.35,3745.49 c -9.85,0 -21.3,2.69 -32.75,7.11 -17.27,6.62 -34.41,17.01 -46.97,25.73 -6.29,4.35 -11.46,8.27 -15.02,11.08 -1.45,1.14 -2.63,2.1 -3.52,2.83 l -279,479.53 c 12.99,12.67 41.51,38.78 79.81,64.15 46.71,31.03 107.81,60.57 172.27,64.64 l 127.68,-611.87 1.29,-2.15 12.89,7.67 v 0 0 l -12.89,-7.67 c 0.22,-0.35 8.4,-14.12 22.22,-32.34 -2.54,-2.15 -5.17,-3.79 -7.92,-5.09 -5.27,-2.45 -11.21,-3.62 -17.96,-3.62 -0.04,0 -0.09,0 -0.13,0"
         id="path416"
         inkscape:connector-curvature="0" />
    </clipPath>
    <clipPath
       clipPathUnits="userSpaceOnUse"
       id="clipPath396">
      <path
         d="m 4169.97,1473.76 c -3.74,2.99 -7.85,5.63 -12.26,7.86 -4.64,2.37 -9.61,4.33 -14.88,5.88 119.35,383.93 236.74,769.05 343.65,1158.31 39.3,142.9 89.1,292.29 103.82,438.41 H 3405.53 c 14.73,-146.12 64.53,-295.51 103.84,-438.41 106.9,-389.23 224.3,-774.4 343.65,-1158.31 -10.29,-3.02 -19.42,-7.59 -27.15,-13.73 -88.24,283.82 -175.48,568.41 -258.25,854.95 -0.03,0.11 -0.06,0.23 -0.09,0.34 -0.47,1.6 -0.94,3.24 -1.4,4.85 -0.09,0.3 -0.17,0.57 -0.25,0.87 -0.43,1.47 -0.87,2.98 -1.29,4.45 -0.51,1.77 -1.02,3.52 -1.53,5.29 -0.11,0.38 -0.21,0.76 -0.32,1.14 -0.47,1.61 -0.93,3.22 -1.39,4.83 -0.11,0.35 -0.21,0.72 -0.31,1.07 -0.48,1.67 -0.96,3.32 -1.44,4.98 -0.07,0.27 -0.15,0.53 -0.23,0.8 -0.51,1.8 -1.02,3.55 -1.53,5.34 -0.05,0.17 -0.1,0.35 -0.15,0.52 -24.49,85.21 -48.58,170.59 -72.17,256.19 -0.02,0.08 -0.04,0.14 -0.06,0.22 -0.51,1.86 -1.05,3.79 -1.56,5.65 -0.05,0.19 -0.1,0.38 -0.15,0.57 -0.49,1.78 -0.98,3.53 -1.46,5.31 -0.08,0.27 -0.15,0.52 -0.22,0.8 -0.54,1.96 -1.09,3.95 -1.63,5.92 -40.15,146.36 -92.7,302.18 -106.09,457.68 v 0 l -0.02,0.13 v 0.11 l -0.17,2.41 -1.11,16.03 h 29.95 1189.83 30.02 l -1.18,-16.09 -0.18,-2.5 -0.01,-0.09 c -13.39,-155.5 -65.93,-311.32 -106.07,-457.68 -57.16,-208.12 -117.3,-415.01 -179.11,-621.11 -0.05,-0.13 -0.08,-0.24 -0.12,-0.38 -0.27,-0.89 -0.54,-1.8 -0.81,-2.69 -54.14,-180.47 -109.57,-360.37 -165.4,-539.92 m -780.85,1625.46 v -15 15"
         id="path394"
         inkscape:connector-curvature="0" />
    </clipPath>
    <radialGradient
       fx="0"
       fy="0"
       cx="0"
       cy="0"
       r="1"
       gradientUnits="userSpaceOnUse"
       gradientTransform="matrix(10904.5,0,0,-6676.61,7000,4900)"
       spreadMethod="pad"
       id="radialGradient408">
      <stop
         style="stop-opacity:1;stop-color:#4b1636"
         offset="0"
         id="stop398" />
      <stop
         style="stop-opacity:1;stop-color:#491535"
         offset="0.171149"
         id="stop400" />
      <stop
         style="stop-opacity:1;stop-color:#391328"
         offset="0.442183"
         id="stop402" />
      <stop
         style="stop-opacity:1;stop-color:#3a122a"
         offset="0.988142"
         id="stop404" />
      <stop
         style="stop-opacity:1;stop-color:#3a122a"
         offset="1"
         id="stop406" />
    </radialGradient>
    <clipPath
       clipPathUnits="userSpaceOnUse"
       id="clipPath374">
      <path
         d="m 4142.83,1487.5 c -9.99,2.94 -21.05,4.4 -33.01,4.4 -61.55,0 -162.25,0 -223.81,0 v 0 0 c -11.93,0 -23,-1.46 -32.99,-4.4 -119.35,383.91 -236.75,769.08 -343.65,1158.31 -39.31,142.9 -89.11,292.29 -103.84,438.41 H 4590.3 c -14.72,-146.12 -64.52,-295.51 -103.82,-438.41 -106.91,-389.26 -224.3,-774.38 -343.65,-1158.31"
         id="path372"
         inkscape:connector-curvature="0" />
    </clipPath>
    <clipPath
       clipPathUnits="userSpaceOnUse"
       id="clipPath352">
      <path
         d="m 4065.08,1137.46 v 38.19 c 0.6,0.98 1.19,1.98 1.78,3 7.15,12.4 15.37,26.63 24.15,41.84 -8.65,-27.68 -17.29,-55.35 -25.93,-83.03 m -134.32,0.01 c -8.66,27.7 -17.29,55.35 -25.95,83.06 8.79,-15.23 17.01,-29.47 24.18,-41.88 0.58,-1 1.17,-2 1.77,-2.98 v -38.2 m 239.22,336.28 c 0,0 0,0.01 -0.01,0.01 55.83,179.55 111.26,359.45 165.4,539.92 -54.14,-180.48 -109.56,-360.36 -165.39,-539.93 m -344.12,0 c -88.23,283.81 -175.48,568.46 -258.24,854.97 82.77,-286.54 170.01,-571.13 258.25,-854.95 0,-0.01 -0.01,-0.01 -0.01,-0.02 m 510.32,542.62 c 0.04,0.14 0.07,0.25 0.12,0.38 -0.04,-0.12 -0.08,-0.25 -0.12,-0.38 m -768.65,312.69 c -0.47,1.62 -0.94,3.23 -1.4,4.85 0.46,-1.61 0.93,-3.25 1.4,-4.85 m -1.65,5.72 c -0.44,1.49 -0.86,2.96 -1.29,4.45 0.42,-1.47 0.86,-2.98 1.29,-4.45 m -2.82,9.74 c -0.11,0.38 -0.21,0.76 -0.32,1.14 0.11,-0.38 0.21,-0.76 0.32,-1.14 m -1.71,5.97 c -0.1,0.34 -0.21,0.73 -0.31,1.07 0.1,-0.35 0.2,-0.72 0.31,-1.07 m -1.75,6.05 c -0.07,0.25 -0.15,0.55 -0.23,0.8 0.08,-0.27 0.16,-0.53 0.23,-0.8 m -1.76,6.14 c -0.05,0.16 -0.11,0.36 -0.15,0.52 0.05,-0.17 0.1,-0.35 0.15,-0.52 m -72.32,256.71 c -0.02,0.06 -0.04,0.16 -0.06,0.22 0.02,-0.08 0.04,-0.14 0.06,-0.22 m -1.62,5.87 c -0.05,0.19 -0.1,0.38 -0.15,0.57 0.05,-0.19 0.1,-0.38 0.15,-0.57 m -1.61,5.88 c -0.07,0.25 -0.15,0.54 -0.22,0.8 0.07,-0.28 0.14,-0.53 0.22,-0.8 m 1139.19,464.4 0.01,0.09 0.18,2.5 1.18,16.09 h -30.02 c 1.18,17.6 1.81,35.13 1.8,52.59 -0.02,96.41 -19.06,190.3 -70.4,280.31 l 13.03,7.43 13.03,7.44 c 54.31,-95.11 74.38,-194.88 74.34,-295.18 0,-23.73 -1.11,-47.5 -3.15,-71.27 m -1247.13,0 c -2.04,23.78 -3.16,47.55 -3.16,71.28 -0.03,100.3 20.03,200.06 74.36,295.17 78.03,136.81 184.96,235.72 304.34,294.23 5.47,-3.88 11.9,-8.21 19.02,-12.57 3.52,-2.14 7.21,-4.3 11.05,-6.41 -120.51,-54.47 -229.27,-151.7 -308.35,-290.12 -51.35,-90.01 -70.39,-183.9 -70.42,-280.3 0,-17.46 0.63,-35 1.81,-52.6 h -29.95 l 1.11,-16.03 0.17,-2.41 v -0.11 l 0.02,-0.13 m 1149.88,351.58 c -92.24,161.45 -224.87,266.87 -369.4,313.75 7.92,5.92 12.67,10.02 12.89,10.2 l 1.9,1.64 1.25,2.17 5.96,10.24 c 146.94,-51.28 280.64,-160.39 373.46,-323.13 l -13.03,-7.44 -13.03,-7.43"
         id="path350"
         inkscape:connector-curvature="0" />
    </clipPath>
    <radialGradient
       fx="0"
       fy="0"
       cx="0"
       cy="0"
       r="1"
       gradientUnits="userSpaceOnUse"
       gradientTransform="matrix(10904.5,0,0,-6676.61,7000,4900)"
       spreadMethod="pad"
       id="radialGradient364">
      <stop
         style="stop-opacity:1;stop-color:#4b1636"
         offset="0"
         id="stop354" />
      <stop
         style="stop-opacity:1;stop-color:#491535"
         offset="0.171149"
         id="stop356" />
      <stop
         style="stop-opacity:1;stop-color:#391328"
         offset="0.442183"
         id="stop358" />
      <stop
         style="stop-opacity:1;stop-color:#3a122a"
         offset="0.988142"
         id="stop360" />
      <stop
         style="stop-opacity:1;stop-color:#3a122a"
         offset="1"
         id="stop362" />
    </radialGradient>
  </defs>
  <sodipodi:namedview
     id="base"
     pagecolor="#ffffff"
     bordercolor="#666666"
     borderopacity="1.0"
     inkscape:pageopacity="0.0"
     inkscape:pageshadow="2"
     inkscape:zoom="1.2432572"
     inkscape:cx="390.33593"
     inkscape:cy="310.31258"
     inkscape:document-units="mm"
     inkscape:current-layer="layer1"
     showgrid="false"
     inkscape:window-width="1853"
     inkscape:window-height="1025"
     inkscape:window-x="67"
     inkscape:window-y="27"
     inkscape:window-maximized="1" />
  <metadata
     id="metadata8403">
    <rdf:RDF>
      <cc:Work
         rdf:about="">
        <dc:format>image/svg+xml</dc:format>
        <dc:type
           rdf:resource="http://purl.org/dc/dcmitype/StillImage" />
        <dc:title></dc:title>
      </cc:Work>
    </rdf:RDF>
  </metadata>
  <g
     inkscape:label="Layer 1"
     inkscape:groupmode="layer"
     id="layer1"
     transform="translate(0,-147)">
    <path
       d="m 101.0873,214.82739 0.52793,0.0385 c 0.67472,-9.18702 -3.025783,-16.88693 -9.133823,-21.29175 l -0.30954,0.42911 0.43922,0.29514 0.001,-0.002 0.31166,-0.46382 -0.49128,-0.29229 -0.27076,0.45475 0.31964,-0.4219 -0.01,-0.008 -0.4463,-0.33773 -0.31323,0.46616 0.43922,0.29514 0.28033,-0.44874 c -6.386301,-3.99073 -14.913641,-4.50738 -23.164581,-0.41125 -3.4622,1.71596 -6.012423,4.24236 -7.985021,7.17985 -0.466903,0.69484 -0.901806,1.41288 -1.309952,2.14934 -2.667488,4.81668 -4.194625,10.41324 -5.898715,15.48882 -6.079379,18.12582 -11.457249,36.39364 -16.873157,54.60232 l -0.111141,0.37286 2.80719,1.88631 0.303514,-0.2436 c 14.812255,-11.89475 29.693642,-23.77663 44.178772,-36.25416 4.055081,-3.49581 8.659381,-7.02466 12.111011,-11.31443 0.52745,-0.65585 1.02762,-1.33005 1.49452,-2.02489 1.9743,-2.93635 3.350013,-6.25239 3.631103,-10.10592 l -0.52792,-0.0385 -0.52772,-0.0388 c -0.26771,3.64574 -1.557553,6.76958 -3.453893,9.59298 -0.44819,0.66746 -0.93055,1.31707 -1.44094,1.9521 -3.33804,4.15486 -7.88899,7.65621 -11.976851,11.17549 -14.4653,12.46068 -29.33697,24.33505 -44.150787,36.23088 l 0.331351,0.41263 0.295131,-0.43921 -2.160953,-1.45206 -0.295132,0.43921 0.506968,0.15067 c 5.416599,-18.21033 10.791192,-36.46632 16.86246,-54.56741 1.71343,-5.11479 3.235454,-10.65187 5.820772,-15.31212 0.394801,-0.71268 0.814402,-1.40489 1.262811,-2.07221 1.897566,-2.82215 4.302471,-5.19671 7.577069,-6.82196 7.96284,-3.9463 16.07226,-3.42189 22.133251,0.36097 l 0.43422,0.27094 0.28668,-0.42664 -0.43921,-0.29513 -0.31964,0.4219 0.01,0.008 0.0232,0.018 0.036,0.0218 0.27076,-0.45475 -0.43922,-0.29513 -0.001,0.002 -0.28549,0.42487 0.41493,0.29965 c 5.79276,4.18204 9.342253,11.49188 8.697673,20.35573 l 0.52772,0.0388"
       style="fill:#41142f;fill-opacity:1;fill-rule:nonzero;stroke:none;stroke-width:0.03527778"
       id="path16"
       inkscape:connector-curvature="0" />
    <path
       d="m 60.477013,202.64145 -0.04226,0.0737 c -2.626109,4.73866 -4.150693,10.30548 -5.859644,15.40031 -5.210361,15.53526 -9.906371,31.17983 -14.554355,46.80609 l 6.175995,4.14999 c 12.711454,-10.20796 25.422017,-20.46711 37.836437,-31.16157 4.071361,-3.50739 8.649381,-7.02244 12.044121,-11.24462 l 0.0522,-0.067 -35.652509,-23.9569"
       style="fill:#d7a096;fill-opacity:1;fill-rule:evenodd;stroke:none;stroke-width:0.03527778"
       id="path18"
       inkscape:connector-curvature="0" />
    <path
       d="m 60.477013,202.64145 -0.458288,-0.26422 -0.04243,0.0739 -0.0022,0.003 -0.0022,0.005 c -2.667467,4.81665 -4.194604,10.41321 -5.898693,15.48878 -5.213928,15.54563 -9.911614,31.19587 -14.559904,46.82321 l -0.110842,0.37306 6.82223,4.58424 0.303224,-0.2438 c 12.712042,-10.20885 25.427526,-20.4715 37.850476,-31.17297 4.055081,-3.49582 8.659371,-7.02466 12.111011,-11.31443 l 0.002,-0.002 0.0542,-0.0699 0.35111,-0.44793 -36.595551,-24.59059 -0.282863,0.49124 0.458288,0.26422 -0.295154,0.43924 35.65251,23.95691 0.29514,-0.43921 -0.41657,-0.32631 -0.0522,0.067 0.41657,0.3263 -0.41255,-0.33166 c -3.33804,4.15486 -7.889,7.6562 -11.976851,11.17549 -12.40617,10.68724 -25.111734,20.9421 -37.822208,31.14988 l 0.331061,0.41244 0.295131,-0.43922 -6.175978,-4.14998 -0.295131,0.43921 0.50725,0.15087 c 4.647884,-15.62548 9.342008,-31.26409 14.548907,-46.7885 1.71343,-5.11478 3.235455,-10.65187 5.820772,-15.31211 l -0.462961,-0.25663 0.458296,0.26422 0.04226,-0.0737 -0.458587,-0.26441 -0.295131,0.43921 0.295131,-0.43921"
       style="fill:#41142f;fill-opacity:1;fill-rule:nonzero;stroke:none;stroke-width:0.03527778"
       id="path20"
       inkscape:connector-curvature="0" />
    <path
       d="m 84.206806,189.54918 1.29796,-20.02796 c 0,0 6.659911,-1.55507 11.168931,1.47479 0,0 -2.16192,14.72413 -6.27251,20.45694 -4.111401,5.73398 -6.194381,-1.90377 -6.194381,-1.90377"
       style="fill:#fffaea;fill-opacity:1;fill-rule:evenodd;stroke:none;stroke-width:0.03527778"
       id="path22"
       inkscape:connector-curvature="0" />
    <path
       d="m 84.206806,189.54918 0.52813,0.0344 1.29796,-20.02796 -0.52813,-0.0344 0.12042,0.5153 0.0146,-0.003 c 0.17137,-0.0387 1.833571,-0.39534 3.965831,-0.38129 2.13401,0.0114 4.72436,0.40256 6.77296,1.78338 l 0.29514,-0.43922 -0.52348,-0.0768 c -1.9e-4,2.8e-4 -0.008,0.0532 -0.024,0.15774 -0.12086,0.78328 -0.6976,4.38417 -1.7066,8.46898 -0.50431,2.04212 -1.11659,4.20506 -1.83087,6.19278 -0.7131,1.98724 -1.53181,3.80023 -2.42567,5.1292 -0.0636,0.0946 -0.12798,0.18687 -0.19206,0.27685 -0.79639,1.11437 -1.4852,1.64353 -1.99679,1.82297 -0.25738,0.0914 -0.4721,0.1061 -0.6752,0.075 -0.2025,-0.032 -0.399471,-0.11456 -0.597121,-0.24737 -0.28986,-0.19357 -0.5735,-0.49886 -0.82287,-0.85513 -0.37544,-0.53365 -0.67289,-1.17511 -0.86909,-1.67757 -0.0986,-0.25113 -0.17284,-0.46764 -0.2218,-0.61997 -0.0246,-0.076 -0.0426,-0.13576 -0.0543,-0.17592 l -0.0131,-0.045 -0.003,-0.0103 -2.7e-4,-10e-4 -0.51057,0.13932 0.52813,0.0344 -0.52813,-0.0344 -0.51057,0.13932 c 0.005,0.0175 0.19562,0.71585 0.58109,1.55588 0.19356,0.42036 0.43582,0.87641 0.73553,1.30391 0.30028,0.42662 0.65712,0.82792 1.09888,1.1256 0.29998,0.2019 0.64362,0.35465 1.023101,0.4142 0.57058,0.0927 1.19962,-0.0427 1.81097,-0.42372 0.61497,-0.38071 1.23323,-0.99467 1.88526,-1.90301 0.0712,-0.0988 0.14133,-0.19957 0.21079,-0.30294 1.03626,-1.54397 1.92276,-3.57747 2.68818,-5.77097 2.28972,-6.57398 3.46388,-14.59786 3.46747,-14.61458 l 0.0484,-0.33004 -0.27671,-0.18594 c -1.19545,-0.80287 -2.52022,-1.29438 -3.82763,-1.58594 -1.96192,-0.4364 -3.88986,-0.42495 -5.33397,-0.30939 -1.443911,0.11654 -2.403891,0.34023 -2.422891,0.34446 l -0.38211,0.0892 -1.32936,20.50796 0.0233,0.0854 0.51057,-0.13932"
       style="fill:#41142f;fill-opacity:1;fill-rule:nonzero;stroke:none;stroke-width:0.03527778"
       id="path24"
       inkscape:connector-curvature="0" />
    <path
       d="m 96.430537,197.76299 18.052673,-8.76954 c 0,0 -1.07647,-6.75358 -5.58577,-9.78363 0,0 -12.815303,7.56553 -16.569863,13.53759 -3.75532,5.97323 4.10296,5.01558 4.10296,5.01558"
       style="fill:#fffaea;fill-opacity:1;fill-rule:evenodd;stroke:none;stroke-width:0.03527778"
       id="path26"
       inkscape:connector-curvature="0" />
    <path
       d="m 96.430537,197.76299 0.23113,0.47577 18.405923,-8.94104 -0.0618,-0.38748 c -0.005,-0.0256 -0.27874,-1.74714 -1.13377,-3.87004 -0.4279,-1.06151 -1.00094,-2.22393 -1.76478,-3.32501 -0.76396,-1.1003 -1.71961,-2.14113 -2.91467,-2.94458 l -0.27701,-0.18614 -0.287,0.16969 c -0.008,0.005 -3.11816,1.84089 -6.73519,4.42484 -1.80875,1.29266 -3.744333,2.77213 -5.485773,4.30807 -1.74117,1.53742 -3.28909,3.12691 -4.32707,4.66974 -0.0693,0.10306 -0.1369,0.20552 -0.20146,0.30877 -0.79021,1.26134 -1.1288,2.27446 -1.09471,3.14657 0.0178,0.434 0.13817,0.82728 0.33744,1.155 0.1985,0.32889 0.46945,0.58916 0.77007,0.79074 0.4423,0.29626 0.94863,0.47508 1.45738,0.5921 0.76284,0.17342 1.53853,0.20502 2.13129,0.19701 0.59227,-0.008 1.00027,-0.0572 1.01368,-0.0588 l 0.0879,-0.0107 0.0793,-0.0389 -0.23113,-0.47577 -0.0639,-0.52536 -0.005,2.6e-4 c -0.0635,0.008 -0.74458,0.0815 -1.56025,0.0392 -0.40755,-0.021 -0.84805,-0.0713 -1.25648,-0.16808 -0.40884,-0.0962 -0.78335,-0.24033 -1.06297,-0.42951 -0.19794,-0.133 -0.34855,-0.28396 -0.45466,-0.45937 -0.15589,-0.26328 -0.23755,-0.59527 -0.15405,-1.11549 0.0854,-0.51729 0.35509,-1.20776 0.90168,-2.0756 0.0591,-0.0933 0.12,-0.18755 0.18356,-0.28213 0.95225,-1.41893 2.44644,-2.96589 4.14883,-4.46647 2.55422,-2.2534 5.574123,-4.41235 7.951363,-6.00263 1.18888,-0.79582 2.21696,-1.44976 2.94756,-1.90451 0.3652,-0.22723 0.65555,-0.40445 0.85482,-0.52514 0.0995,-0.0602 0.17618,-0.10602 0.22759,-0.13693 0.0516,-0.0308 0.0771,-0.0459 0.0771,-0.0459 l -0.26893,-0.45568 -0.29514,0.43922 c 1.05939,0.71186 1.92912,1.6516 2.63545,2.6694 1.05974,1.52603 1.74676,3.22534 2.1625,4.53835 0.20835,0.65641 0.34945,1.2162 0.43784,1.60966 0.0439,0.19654 0.0753,0.35153 0.0951,0.4562 0.01,0.0525 0.0168,0.0921 0.0214,0.11808 l 0.005,0.0288 0.001,0.007 0.5223,-0.0834 -0.23093,-0.47606 -18.052873,8.76982 0.23113,0.47578 -0.0639,-0.52536 0.0639,0.52536"
       style="fill:#41142f;fill-opacity:1;fill-rule:nonzero;stroke:none;stroke-width:0.03527778"
       id="path28"
       inkscape:connector-curvature="0" />
    <path
       d="m 88.145207,191.69451 9.90489,-24.37875 c 0,0 8.928653,0.82201 13.283833,6.45845 0,0 -8.78355,17.42146 -16.270813,22.85232 -7.48775,5.43095 -6.91791,-4.93202 -6.91791,-4.93202"
       style="fill:#fffaea;fill-opacity:1;fill-rule:evenodd;stroke:none;stroke-width:0.03527778"
       id="path30"
       inkscape:connector-curvature="0" />
    <path
       d="m 88.145207,191.69451 0.49025,0.19893 9.90499,-24.37825 -0.49035,-0.19943 -0.0486,0.5271 0.0124,0.001 c 0.14623,0.0145 1.55404,0.16359 3.452513,0.66787 1.89878,0.5032 4.28664,1.36394 6.39304,2.7802 1.13815,0.76479 2.19393,1.69014 3.05597,2.80576 l 0.41849,-0.3236 -0.47231,-0.23831 c -2e-4,2.9e-4 -0.0487,0.0965 -0.14368,0.28088 -0.66418,1.2895 -3.56655,6.81881 -7.20822,12.23768 -1.36586,2.03315 -2.83572,4.04995 -4.325883,5.81853 -1.48909,1.76885 -3.00133,3.2888 -4.43128,4.32512 -1.18529,0.86071 -2.13466,1.28618 -2.85537,1.42074 -0.36061,0.068 -0.66392,0.0665 -0.924,0.0183 -0.26038,-0.0483 -0.48068,-0.14235 -0.68116,-0.27665 -0.40958,-0.27281 -0.74071,-0.73956 -0.9876,-1.32028 -0.37236,-0.86777 -0.53988,-1.96129 -0.60208,-2.82636 -0.0316,-0.43307 -0.0389,-0.8099 -0.0379,-1.07573 2.8e-4,-0.13327 0.003,-0.23873 0.005,-0.31034 l 0.003,-0.0804 9.6e-4,-0.0194 -2.6e-4,-0.005 -0.52835,-0.029 0.49026,0.19895 -0.49026,-0.19895 -0.52834,-0.029 c -6.6e-4,0.0212 -0.0677,1.21898 0.13951,2.62732 0.10447,0.70474 0.27664,1.46308 0.57456,2.16268 0.29814,0.69675 0.72539,1.34809 1.37084,1.7835 0.31286,0.21056 0.67614,0.36506 1.07907,0.43905 0.60533,0.1118 1.28824,0.0449 2.04532,-0.21649 0.75818,-0.26239 1.59767,-0.71791 2.54751,-1.40659 1.53758,-1.11616 3.09455,-2.69065 4.61968,-4.49988 1.524073,-1.80953 3.013393,-3.8545 4.394813,-5.91033 4.20628,-6.26014 7.41259,-12.62143 7.4186,-12.63226 l 0.15003,-0.29786 -0.20382,-0.26404 c -0.94483,-1.22268 -2.08918,-2.22114 -3.30318,-3.0369 -2.32145,-1.55858 -4.89925,-2.45733 -6.90091,-2.9744 -2.001953,-0.51601 -3.430093,-0.64813 -3.450333,-0.65026 l -0.39066,-0.036 -10.08645,24.82416 -0.005,0.0884 0.52835,0.029"
       style="fill:#41142f;fill-opacity:1;fill-rule:nonzero;stroke:none;stroke-width:0.03527778"
       id="path32"
       inkscape:connector-curvature="0" />
    <path
       d="m 43.106329,259.92159 c 1.802552,1.21124 4.751168,3.19258 6.553429,4.40362 1.801963,1.21084 1.68141,2.98293 -0.268487,3.93849 -1.949695,0.95527 -5.140411,2.51831 -7.090495,3.47416 -1.949305,0.95469 -3.423908,-0.0362 -3.276274,-2.20151 0.14783,-2.16689 0.389341,-5.71166 0.537061,-7.87777 0.147636,-2.1666 1.742792,-2.94783 3.544766,-1.73699"
       style="fill:#fac8a4;fill-opacity:1;fill-rule:evenodd;stroke:none;stroke-width:0.03527778"
       id="path34"
       inkscape:connector-curvature="0" />
    <path
       d="m 43.106329,259.92159 -0.295131,0.43922 c 1.802552,1.21123 4.751168,3.19257 6.553429,4.40361 0.568492,0.38169 0.874934,0.79661 0.986723,1.15905 0.05667,0.18258 0.06886,0.35483 0.0426,0.52546 -0.02657,0.17043 -0.09283,0.34184 -0.210199,0.51713 -0.190592,0.28505 -0.524491,0.57751 -1.025271,0.82244 -1.949693,0.95528 -5.140208,2.51802 -7.0905,3.47417 -0.431377,0.21123 -0.815857,0.30395 -1.131811,0.30926 -0.317818,0.005 -0.564401,-0.0703 -0.76479,-0.20406 -0.199248,-0.13485 -0.362327,-0.33491 -0.477905,-0.63098 -0.114478,-0.29453 -0.17411,-0.68525 -0.141049,-1.16456 0.148032,-2.16719 0.38935,-5.71166 0.53708,-7.87778 0.03755,-0.5562 0.182415,-0.97611 0.373961,-1.26052 0.117942,-0.17491 0.251891,-0.30082 0.399351,-0.39001 0.221709,-0.13197 0.481007,-0.19021 0.808062,-0.15193 0.325286,0.0384 0.715356,0.18274 1.140321,0.46872 l 0.295131,-0.43922 0.295137,-0.43922 c -0.711533,-0.47812 -1.439333,-0.70875 -2.125923,-0.65158 -0.341874,0.0287 -0.669531,0.13238 -0.958024,0.30618 -0.288981,0.17389 -0.536921,0.41573 -0.732497,0.70678 -0.319526,0.47681 -0.503534,1.07954 -0.551389,1.77885 -0.147726,2.16611 -0.389231,5.71088 -0.537067,7.87778 -0.04105,0.60315 0.0283,1.14829 0.210032,1.61851 0.180279,0.46923 0.480002,0.86317 0.874511,1.12741 0.393685,0.26549 0.871722,0.39407 1.374574,0.38387 0.503737,-0.01 1.034662,-0.15139 1.577878,-0.41711 1.950097,-0.95586 5.140808,-2.51889 7.090509,-3.47416 0.629083,-0.30875 1.117609,-0.70685 1.438112,-1.18257 0.196001,-0.2912 0.326261,-0.61212 0.377612,-0.94526 0.07903,-0.50028 -0.02564,-1.01816 -0.284892,-1.4818 -0.259148,-0.46571 -0.665043,-0.88381 -1.200007,-1.24328 -1.802261,-1.21104 -4.750877,-3.19238 -6.553429,-4.40362 l -0.295137,0.43922"
       style="fill:#41142f;fill-opacity:1;fill-rule:nonzero;stroke:none;stroke-width:0.03527778"
       id="path36"
       inkscape:connector-curvature="0" />
    <path
       d="m 43.106329,259.92159 c 1.802552,1.21124 4.751168,3.19258 6.553429,4.40362 1.801963,1.21084 1.68141,2.98293 -0.268487,3.93849 -1.949695,0.95527 -5.140411,2.51831 -7.090495,3.47416 -1.949305,0.95469 -3.423908,-0.0362 -3.276274,-2.20151 0.14783,-2.16689 0.389341,-5.71166 0.537061,-7.87777 0.147636,-2.1666 1.742792,-2.94783 3.544766,-1.73699"
       style="fill:#fac8a4;fill-opacity:1;fill-rule:nonzero;stroke:none;stroke-width:0.03527778"
       id="path38"
       inkscape:connector-curvature="0" />
    <path
       d="m 43.106329,259.92159 -0.295131,0.43922 c 1.802552,1.21123 4.751168,3.19257 6.553429,4.40361 0.568492,0.38169 0.874934,0.79661 0.986723,1.15905 0.05667,0.18258 0.06886,0.35483 0.0426,0.52546 -0.02657,0.17043 -0.09283,0.34184 -0.210199,0.51713 -0.190592,0.28505 -0.524491,0.57751 -1.025271,0.82244 -1.949693,0.95528 -5.140208,2.51802 -7.0905,3.47417 -0.431377,0.21123 -0.815857,0.30395 -1.131811,0.30926 -0.317818,0.005 -0.564401,-0.0703 -0.76479,-0.20406 -0.199248,-0.13485 -0.362327,-0.33491 -0.477905,-0.63098 -0.114478,-0.29453 -0.17411,-0.68525 -0.141049,-1.16456 0.148032,-2.16719 0.38935,-5.71166 0.53708,-7.87778 0.03755,-0.5562 0.182415,-0.97611 0.373961,-1.26052 0.117942,-0.17491 0.251891,-0.30082 0.399351,-0.39001 0.221709,-0.13197 0.481007,-0.19021 0.808062,-0.15193 0.325286,0.0384 0.715356,0.18274 1.140321,0.46872 l 0.295131,-0.43922 0.295137,-0.43922 c -0.711533,-0.47812 -1.439333,-0.70875 -2.125923,-0.65158 -0.341874,0.0287 -0.669531,0.13238 -0.958024,0.30618 -0.288981,0.17389 -0.536921,0.41573 -0.732497,0.70678 -0.319526,0.47681 -0.503534,1.07954 -0.551389,1.77885 -0.147726,2.16611 -0.389231,5.71088 -0.537067,7.87778 -0.04105,0.60315 0.0283,1.14829 0.210032,1.61851 0.180279,0.46923 0.480002,0.86317 0.874511,1.12741 0.393685,0.26549 0.871722,0.39407 1.374574,0.38387 0.503737,-0.01 1.034662,-0.15139 1.577878,-0.41711 1.950097,-0.95586 5.140808,-2.51889 7.090509,-3.47416 0.629083,-0.30875 1.117609,-0.70685 1.438112,-1.18257 0.196001,-0.2912 0.326261,-0.61212 0.377612,-0.94526 0.07903,-0.50028 -0.02564,-1.01816 -0.284892,-1.4818 -0.259148,-0.46571 -0.665043,-0.88381 -1.200007,-1.24328 -1.802261,-1.21104 -4.750877,-3.19238 -6.553429,-4.40362 l -0.295137,0.43922"
       style="fill:#41142f;fill-opacity:1;fill-rule:nonzero;stroke:none;stroke-width:0.03527778"
       id="path40"
       inkscape:connector-curvature="0" />
    <path
       d="m 36.742622,273.17132 3.05461,2.05257 2.392602,-3.56066 -3.05461,-2.05256 z"
       style="fill:#e6e6e6;fill-opacity:1;fill-rule:evenodd;stroke:none;stroke-width:0.03527778"
       id="path42"
       inkscape:connector-curvature="0" />
    <path
       d="m 42.189795,271.66329 0.295131,-0.43921 -3.493831,-2.3477 -2.982831,4.43903 3.933052,2.64283 2.982831,-4.43903 -0.439221,-0.29513 -0.295131,0.43921 -0.439213,-0.29513 -2.097426,3.12137 -2.176185,-1.46229 1.802289,-2.68216 2.615398,1.75743 0.295137,-0.43922 -0.439213,-0.29513 0.439213,0.29513"
       style="fill:#01142f;fill-opacity:1;fill-rule:nonzero;stroke:none;stroke-width:0.03527778"
       id="path44"
       inkscape:connector-curvature="0" />
    <g
       id="g346"
       transform="matrix(0.02928122,0.01967567,0.01967567,-0.02928122,-99.739772,226.70716)"
       style="fill:#01142f;fill-opacity:1;stroke:none;stroke-opacity:1">
      <g
         id="g348"
         clip-path="url(#clipPath352)"
         style="fill:#01142f;fill-opacity:1;stroke:none;stroke-opacity:1">
        <path
           d="m 4065.08,1137.46 v 38.19 c 0.6,0.98 1.19,1.98 1.78,3 7.15,12.4 15.37,26.63 24.15,41.84 -8.65,-27.68 -17.29,-55.35 -25.93,-83.03 m -134.32,0.01 c -8.66,27.7 -17.29,55.35 -25.95,83.06 8.79,-15.23 17.01,-29.47 24.18,-41.88 0.58,-1 1.17,-2 1.77,-2.98 v -38.2 m 239.22,336.28 c 0,0 0,0.01 -0.01,0.01 55.83,179.55 111.26,359.45 165.4,539.92 -54.14,-180.48 -109.56,-360.36 -165.39,-539.93 m -344.12,0 c -88.23,283.81 -175.48,568.46 -258.24,854.97 82.77,-286.54 170.01,-571.13 258.25,-854.95 0,-0.01 -0.01,-0.01 -0.01,-0.02 m 510.32,542.62 c 0.04,0.14 0.07,0.25 0.12,0.38 -0.04,-0.12 -0.08,-0.25 -0.12,-0.38 m -768.65,312.69 c -0.47,1.62 -0.94,3.23 -1.4,4.85 0.46,-1.61 0.93,-3.25 1.4,-4.85 m -1.65,5.72 c -0.44,1.49 -0.86,2.96 -1.29,4.45 0.42,-1.47 0.86,-2.98 1.29,-4.45 m -2.82,9.74 c -0.11,0.38 -0.21,0.76 -0.32,1.14 0.11,-0.38 0.21,-0.76 0.32,-1.14 m -1.71,5.97 c -0.1,0.34 -0.21,0.73 -0.31,1.07 0.1,-0.35 0.2,-0.72 0.31,-1.07 m -1.75,6.05 c -0.07,0.25 -0.15,0.55 -0.23,0.8 0.08,-0.27 0.16,-0.53 0.23,-0.8 m -1.76,6.14 c -0.05,0.16 -0.11,0.36 -0.15,0.52 0.05,-0.17 0.1,-0.35 0.15,-0.52 m -72.32,256.71 c -0.02,0.06 -0.04,0.16 -0.06,0.22 0.02,-0.08 0.04,-0.14 0.06,-0.22 m -1.62,5.87 c -0.05,0.19 -0.1,0.38 -0.15,0.57 0.05,-0.19 0.1,-0.38 0.15,-0.57 m -1.61,5.88 c -0.07,0.25 -0.15,0.54 -0.22,0.8 0.07,-0.28 0.14,-0.53 0.22,-0.8 m 1139.19,464.4 0.01,0.09 0.18,2.5 1.18,16.09 h -30.02 c 1.18,17.6 1.81,35.13 1.8,52.59 -0.02,96.41 -19.06,190.3 -70.4,280.31 l 13.03,7.43 13.03,7.44 c 54.31,-95.11 74.38,-194.88 74.34,-295.18 0,-23.73 -1.11,-47.5 -3.15,-71.27 m -1247.13,0 c -2.04,23.78 -3.16,47.55 -3.16,71.28 -0.03,100.3 20.03,200.06 74.36,295.17 78.03,136.81 184.96,235.72 304.34,294.23 5.47,-3.88 11.9,-8.21 19.02,-12.57 3.52,-2.14 7.21,-4.3 11.05,-6.41 -120.51,-54.47 -229.27,-151.7 -308.35,-290.12 -51.35,-90.01 -70.39,-183.9 -70.42,-280.3 0,-17.46 0.63,-35 1.81,-52.6 h -29.95 l 1.11,-16.03 0.17,-2.41 v -0.11 l 0.02,-0.13 m 1149.88,351.58 c -92.24,161.45 -224.87,266.87 -369.4,313.75 7.92,5.92 12.67,10.02 12.89,10.2 l 1.9,1.64 1.25,2.17 5.96,10.24 c 146.94,-51.28 280.64,-160.39 373.46,-323.13 l -13.03,-7.44 -13.03,-7.43"
           style="fill:#01142f;fill-opacity:1;fill-rule:nonzero;stroke:none;stroke-opacity:1"
           id="path366"
           inkscape:connector-curvature="0" />
      </g>
    </g>
    <g
       id="g368"
       transform="matrix(0.02928122,0.01967567,0.01967567,-0.02928122,-99.739772,226.70716)"
       style="fill:#e6e6e6">
      <g
         id="g370"
         clip-path="url(#clipPath374)"
         style="fill:#e6e6e6">
        <path
           d="m 4142.83,1487.5 c -9.99,2.94 -21.05,4.4 -33.01,4.4 -61.55,0 -162.25,0 -223.81,0 v 0 0 c -11.93,0 -23,-1.46 -32.99,-4.4 -119.35,383.91 -236.75,769.08 -343.65,1158.31 -39.31,142.9 -89.11,292.29 -103.84,438.41 H 4590.3 c -14.72,-146.12 -64.52,-295.51 -103.82,-438.41 -106.91,-389.26 -224.3,-774.38 -343.65,-1158.31"
           style="fill:#e6e6e6;fill-opacity:1;fill-rule:nonzero;stroke:none"
           id="path388"
           inkscape:connector-curvature="0" />
      </g>
    </g>
    <g
       id="g390"
       transform="matrix(0.02928122,0.01967567,0.01967567,-0.02928122,-99.739772,226.70716)"
       style="fill:#01142f;fill-opacity:1;stroke:none;stroke-opacity:1">
      <g
         id="g392"
         clip-path="url(#clipPath396)"
         style="fill:#01142f;fill-opacity:1;stroke:none;stroke-opacity:1">
        <path
           d="m 4169.97,1473.76 c -3.74,2.99 -7.85,5.63 -12.26,7.86 -4.64,2.37 -9.61,4.33 -14.88,5.88 119.35,383.93 236.74,769.05 343.65,1158.31 39.3,142.9 89.1,292.29 103.82,438.41 H 3405.53 c 14.73,-146.12 64.53,-295.51 103.84,-438.41 106.9,-389.23 224.3,-774.4 343.65,-1158.31 -10.29,-3.02 -19.42,-7.59 -27.15,-13.73 -88.24,283.82 -175.48,568.41 -258.25,854.95 -0.03,0.11 -0.06,0.23 -0.09,0.34 -0.47,1.6 -0.94,3.24 -1.4,4.85 -0.09,0.3 -0.17,0.57 -0.25,0.87 -0.43,1.47 -0.87,2.98 -1.29,4.45 -0.51,1.77 -1.02,3.52 -1.53,5.29 -0.11,0.38 -0.21,0.76 -0.32,1.14 -0.47,1.61 -0.93,3.22 -1.39,4.83 -0.11,0.35 -0.21,0.72 -0.31,1.07 -0.48,1.67 -0.96,3.32 -1.44,4.98 -0.07,0.27 -0.15,0.53 -0.23,0.8 -0.51,1.8 -1.02,3.55 -1.53,5.34 -0.05,0.17 -0.1,0.35 -0.15,0.52 -24.49,85.21 -48.58,170.59 -72.17,256.19 -0.02,0.08 -0.04,0.14 -0.06,0.22 -0.51,1.86 -1.05,3.79 -1.56,5.65 -0.05,0.19 -0.1,0.38 -0.15,0.57 -0.49,1.78 -0.98,3.53 -1.46,5.31 -0.08,0.27 -0.15,0.52 -0.22,0.8 -0.54,1.96 -1.09,3.95 -1.63,5.92 -40.15,146.36 -92.7,302.18 -106.09,457.68 v 0 l -0.02,0.13 v 0.11 l -0.17,2.41 -1.11,16.03 h 29.95 1189.83 30.02 l -1.18,-16.09 -0.18,-2.5 -0.01,-0.09 c -13.39,-155.5 -65.93,-311.32 -106.07,-457.68 -57.16,-208.12 -117.3,-415.01 -179.11,-621.11 -0.05,-0.13 -0.08,-0.24 -0.12,-0.38 -0.27,-0.89 -0.54,-1.8 -0.81,-2.69 -54.14,-180.47 -109.57,-360.37 -165.4,-539.92 m -780.85,1625.46 v -15 15"
           style="fill:#01142f;fill-opacity:1;fill-rule:nonzero;stroke:none;stroke-opacity:1"
           id="path410"
           inkscape:connector-curvature="0" />
      </g>
    </g>
    <g
       id="g412"
       transform="matrix(0.02928122,0.01967567,0.01967567,-0.02928122,-99.739772,226.70716)"
       style="fill:#ececec;stroke:none;stroke-opacity:1">
      <g
         id="g414"
         clip-path="url(#clipPath418)"
         style="fill:#ececec;stroke:none;stroke-opacity:1">
        <path
           d="m 3850.35,3745.49 c -9.85,0 -21.3,2.69 -32.75,7.11 -17.27,6.62 -34.41,17.01 -46.97,25.73 -6.29,4.35 -11.46,8.27 -15.02,11.08 -1.45,1.14 -2.63,2.1 -3.52,2.83 l -279,479.53 c 12.99,12.67 41.51,38.78 79.81,64.15 46.71,31.03 107.81,60.57 172.27,64.64 l 127.68,-611.87 1.29,-2.15 12.89,7.67 v 0 0 l -12.89,-7.67 c 0.22,-0.35 8.4,-14.12 22.22,-32.34 -2.54,-2.15 -5.17,-3.79 -7.92,-5.09 -5.27,-2.45 -11.21,-3.62 -17.96,-3.62 -0.04,0 -0.09,0 -0.13,0"
           style="fill:#ececec;fill-opacity:1;fill-rule:nonzero;stroke:none;stroke-opacity:1"
           id="path432"
           inkscape:connector-curvature="0" />
      </g>
    </g>
    <g
       id="g434"
       transform="matrix(0.02928122,0.01967567,0.01967567,-0.02928122,-99.739772,226.70716)"
       style="fill:#01142f;fill-opacity:1">
      <g
         id="g436"
         clip-path="url(#clipPath440)"
         style="fill:#01142f;fill-opacity:1">
        <path
           d="m 3850.54,3715.49 c -0.02,0 -0.04,0 -0.06,0 -15.1,0.02 -29.84,3.82 -43.65,9.11 -9.47,3.65 -18.51,8.04 -26.87,12.64 -3.84,2.11 -7.53,4.27 -11.05,6.41 -7.12,4.36 -13.55,8.69 -19.02,12.57 -11.69,8.32 -18.98,14.62 -19.25,14.85 l 9.81,11.35 12.97,7.54 -12.97,-7.54 -9.81,-11.35 -1.9,1.64 -292.95,503.53 7.58,8.14 c 0.38,0.4 19.43,20.84 51.56,46.41 32.15,25.55 77.33,56.3 130.39,77.05 29.12,11.37 60.66,19.74 93.67,22.34 l 6.18,-29.62 c -64.46,-4.07 -125.56,-33.61 -172.27,-64.64 -38.3,-25.37 -66.82,-51.48 -79.81,-64.15 l 279,-479.53 c 0.89,-0.73 2.07,-1.69 3.52,-2.83 3.56,-2.81 8.73,-6.73 15.02,-11.08 12.56,-8.72 29.7,-19.11 46.97,-25.73 11.45,-4.42 22.9,-7.11 32.75,-7.11 0.04,0 0.09,0 0.13,0 6.75,0 12.69,1.17 17.96,3.62 2.75,1.3 5.38,2.94 7.92,5.09 5.49,-7.23 11.86,-15.16 18.98,-23.23 -4.44,-3.71 -9.21,-6.74 -14.24,-9.05 -9.85,-4.59 -20.33,-6.43 -30.56,-6.43"
           style="fill:#01142f;fill-opacity:1;fill-rule:nonzero;stroke:none"
           id="path454"
           inkscape:connector-curvature="0" />
      </g>
    </g>
    <g
       id="g456"
       transform="matrix(0.02928122,0.01967567,0.01967567,-0.02928122,-99.739772,226.70716)"
       style="fill:#ececec">
      <g
         id="g458"
         clip-path="url(#clipPath462)"
         style="fill:#ececec">
        <path
           d="m 4117.79,3771.73 c 1.37,3.45 2.72,7 4.06,10.64 18.53,50.57 30.27,112.23 37.55,178.91 7.25,66.67 9.96,138.33 9.96,208.54 0,77.76 -3.33,153.75 -7.56,218.98 2.1,4.61 3.91,8.51 5.36,11.65 0.07,0.13 0.13,0.27 0.19,0.4 32.88,-1.3 64.91,-9.28 94.77,-20.95 49.06,-19.15 92.09,-48.27 122.63,-72.59 15.28,-12.15 27.45,-23.09 35.75,-30.95 1.77,-1.68 3.36,-3.21 4.77,-4.59 l -279,-479.53 c -4.1,-3.37 -14.71,-11.78 -28.48,-20.51"
           style="fill:#ececec;fill-opacity:1;fill-rule:nonzero;stroke:none"
           id="path476"
           inkscape:connector-curvature="0" />
      </g>
    </g>
    <g
       id="g478"
       transform="matrix(0.02928122,0.01967567,0.01967567,-0.02928122,-99.739772,226.70716)"
       style="fill:#01142f;fill-opacity:1;stroke:none;stroke-opacity:1">
      <g
         id="g480"
         clip-path="url(#clipPath484)"
         style="fill:#01142f;fill-opacity:1;stroke:none;stroke-opacity:1">
        <path
           d="m 4095.76,3726.29 c 7.74,12.85 15.08,27.9 22.03,45.44 13.77,8.73 24.38,17.14 28.48,20.51 l 279,479.53 c -1.41,1.38 -3,2.91 -4.77,4.59 -8.3,7.86 -20.47,18.8 -35.75,30.95 -30.54,24.32 -73.57,53.44 -122.63,72.59 -29.86,11.67 -61.89,19.65 -94.77,20.95 -0.06,-0.13 -0.12,-0.27 -0.19,-0.4 -1.45,-3.14 -3.26,-7.04 -5.36,-11.65 -0.95,14.66 -1.95,28.77 -2.97,42.23 40.48,-0.14 79.11,-9.48 114.21,-23.19 35.38,-13.83 67.24,-32.12 94.09,-50.33 53.68,-36.43 87.35,-72.6 87.86,-73.13 l 7.58,-8.14 -285.74,-491.12 -5.96,-10.24 -1.25,-2.17 -1.9,-1.64 c -0.22,-0.18 -4.97,-4.28 -12.89,-10.2 -2.93,-2.19 -6.3,-4.63 -10.03,-7.21 -12.88,-8.9 -30.02,-19.51 -49.04,-27.37"
           style="fill:#01142f;fill-opacity:1;fill-rule:nonzero;stroke:none;stroke-opacity:1"
           id="path498"
           inkscape:connector-curvature="0" />
      </g>
    </g>
    <g
       id="g500"
       transform="matrix(0.02928122,0.01967567,0.01967567,-0.02928122,-99.739772,226.70716)"
       style="fill:#ececec;stroke:none;stroke-opacity:1">
      <g
         id="g502"
         clip-path="url(#clipPath506)"
         style="fill:#ececec;stroke:none;stroke-opacity:1">
        <path
           d="m 4006.95,3694.84 c -13.9,0 -29.01,5.73 -43.94,15.45 -22.48,14.53 -43.71,37.61 -58.85,56.98 -7.59,9.69 -13.72,18.44 -17.9,24.71 -2.1,3.14 -3.71,5.66 -4.79,7.38 l -0.29,0.47 -149.51,716.42 c 14.4,7.12 43.74,20.73 82.27,34.01 52.59,18.17 122.33,35.66 194.21,35.66 0.06,0 0.1,0 0.16,0 35.8,0 72.11,-4.31 107.24,-14.85 4.89,-42.01 23.82,-217.13 23.81,-401.25 0.01,-69.43 -2.69,-140.12 -9.79,-205.29 -7.07,-65.16 -18.62,-124.83 -35.88,-171.82 -14.28,-38.99 -29.89,-64.01 -44.72,-78.57 -7.41,-7.3 -14.57,-12.06 -21.45,-15.04 -6.89,-2.98 -13.56,-4.25 -20.4,-4.26 -0.06,0 -0.11,0 -0.17,0"
           style="fill:#ececec;fill-opacity:1;fill-rule:nonzero;stroke:none;stroke-opacity:1"
           id="path520"
           inkscape:connector-curvature="0" />
      </g>
    </g>
    <g
       id="g522"
       transform="matrix(0.02928122,0.01967567,0.01967567,-0.02928122,-99.739772,226.70716)"
       style="fill:#01142f;fill-opacity:1">
      <g
         id="g524"
         clip-path="url(#clipPath528)"
         style="fill:#01142f;fill-opacity:1">
        <path
           d="m 4007.2,3664.84 c -0.03,0 -0.06,0 -0.08,0 -22.07,0.04 -42.42,8.61 -60.45,20.29 -18.07,11.75 -34.11,26.87 -47.71,41.8 -1.23,1.35 -2.43,2.7 -3.62,4.04 -7.12,8.07 -13.49,16 -18.98,23.23 -13.82,18.22 -22,31.99 -22.22,32.34 l 12.89,7.67 14.68,3.07 -14.68,-3.07 -12.89,-7.67 -1.29,2.15 -127.68,611.87 -6.18,29.62 -21.29,102.04 9.76,5.33 c 0.51,0.27 36.2,19.74 91.46,39.25 55.27,19.48 130.13,39.09 209.39,39.12 41.46,0 84.17,-5.4 125.73,-19.23 l 8.97,-2.99 1.18,-9.38 c 0.01,-0.2 7.75,-61.89 14.64,-153.29 1.02,-13.46 2.02,-27.57 2.97,-42.23 4.23,-65.23 7.56,-141.22 7.56,-218.98 0,-70.21 -2.71,-141.87 -9.96,-208.54 -7.28,-66.68 -19.02,-128.34 -37.55,-178.91 -1.34,-3.64 -2.69,-7.19 -4.06,-10.64 -6.95,-17.54 -14.29,-32.59 -22.03,-45.44 -3.77,-6.27 -7.65,-12.02 -11.61,-17.29 -13.68,-18.12 -28.69,-30.49 -44.7,-37.43 -10.63,-4.61 -21.58,-6.73 -32.25,-6.73 m -126.02,134.99 0.29,-0.47 c 1.08,-1.72 2.69,-4.24 4.79,-7.38 4.18,-6.27 10.31,-15.02 17.9,-24.71 15.14,-19.37 36.37,-42.45 58.85,-56.98 14.93,-9.72 30.04,-15.45 43.94,-15.45 0.06,0 0.11,0 0.17,0 6.84,0.01 13.51,1.28 20.4,4.26 6.88,2.98 14.04,7.74 21.45,15.04 14.83,14.56 30.44,39.58 44.72,78.57 17.26,46.99 28.81,106.66 35.88,171.82 7.1,65.17 9.8,135.86 9.79,205.29 0.01,184.12 -18.92,359.24 -23.81,401.25 -35.13,10.54 -71.44,14.85 -107.24,14.85 -0.06,0 -0.1,0 -0.16,0 -71.88,0 -141.62,-17.49 -194.21,-35.66 -38.53,-13.28 -67.87,-26.89 -82.27,-34.01 l 149.51,-716.42"
           style="fill:#01142f;fill-opacity:1;fill-rule:nonzero;stroke:none"
           id="path542"
           inkscape:connector-curvature="0" />
      </g>
    </g>
    <g
       id="g544"
       transform="matrix(0.02928122,0.01967567,0.01967567,-0.02928122,-99.739772,226.70716)"
       style="fill:#999999;fill-opacity:1">
      <g
         id="g546"
         clip-path="url(#clipPath550)"
         style="fill:#999999;fill-opacity:1">
        <path
           d="m 4045.21,1201.15 h -94.57 c -31,53.71 -78.21,135.47 -107.58,186.34 -7.91,13.68 -11.14,25.85 -11.13,35.57 0.01,5.98 1.17,11.06 3.23,15.49 3.13,6.61 8.31,12.08 16.61,16.35 8.25,4.23 19.69,7 34.19,7 0.02,0 0.04,0 0.05,0 v 15 0 -15 c 61.56,0 162.26,0 223.81,0 19.41,0.01 33.18,-4.91 41.54,-11.67 4.22,-3.4 7.23,-7.26 9.31,-11.69 2.07,-4.43 3.22,-9.51 3.23,-15.49 0.02,-9.72 -3.21,-21.88 -11.12,-35.56 -29.37,-50.87 -76.58,-132.63 -107.57,-186.34"
           style="fill:#999999;fill-opacity:1;fill-rule:nonzero;stroke:none"
           id="path564"
           inkscape:connector-curvature="0" />
      </g>
    </g>
    <g
       id="g566"
       transform="matrix(0.02928122,0.01967567,0.01967567,-0.02928122,-99.739772,226.70716)"
       style="fill:#01142f;fill-opacity:1;stroke:none;stroke-opacity:1">
      <g
         id="g568"
         clip-path="url(#clipPath572)"
         style="fill:#01142f;fill-opacity:1;stroke:none;stroke-opacity:1">
        <path
           d="m 4065.08,1175.65 v 25.5 h -15 v -15 15 h -4.87 c 30.99,53.71 78.2,135.47 107.57,186.34 7.91,13.68 11.14,25.84 11.12,35.56 -0.01,5.98 -1.16,11.06 -3.23,15.49 -2.08,4.43 -5.09,8.29 -9.31,11.69 -8.36,6.76 -22.13,11.68 -41.54,11.67 -61.55,0 -162.25,0 -223.81,0 v 15 15 c 61.56,0 162.26,0 223.81,0 18.27,0 34.43,-3.42 47.89,-10.28 13.43,-6.81 24.08,-17.34 30.13,-30.36 4.06,-8.65 6.07,-18.26 6.06,-28.21 v 0 c -0.02,-16.26 -5.22,-33.35 -15.14,-50.56 -23.61,-40.9 -58.77,-101.79 -87.75,-152 -8.78,-15.21 -17,-29.44 -24.15,-41.84 -0.59,-1.02 -1.18,-2.02 -1.78,-3 m -134.32,0.02 c -0.6,0.98 -1.19,1.98 -1.77,2.98 -7.17,12.41 -15.39,26.65 -24.18,41.88 -28.98,50.2 -64.12,111.06 -87.73,151.96 -9.93,17.21 -15.13,34.3 -15.15,50.57 v 0 c 0,9.94 2.01,19.55 6.06,28.21 4.04,8.65 10.11,16.27 17.7,22.35 15.25,12.2 36.02,18.28 60.32,18.28 v 0 0 -15 -15 c -0.01,0 -0.03,0 -0.05,0 -14.5,0 -25.94,-2.77 -34.19,-7 -8.3,-4.27 -13.48,-9.74 -16.61,-16.35 -2.06,-4.43 -3.22,-9.51 -3.23,-15.49 -0.01,-9.72 3.22,-21.89 11.13,-35.57 29.37,-50.87 76.58,-132.63 107.58,-186.34 h -19.88 v -25.48"
           style="fill:#01142f;fill-opacity:1;fill-rule:nonzero;stroke:none;stroke-opacity:1"
           id="path586"
           inkscape:connector-curvature="0" />
      </g>
    </g>
    <path
       style="opacity:0.01000001;fill:#e6e6e6;fill-opacity:1;stroke:none;stroke-width:0.16232108;stroke-opacity:1"
       d="m 32.815633,267.67619 0.860056,-1.27993 1.010472,0.679 1.010469,0.67899 -0.860056,1.27993 -0.860056,1.27993 -1.01047,-0.67899 -1.010471,-0.679 z"
       id="path9219"
       inkscape:connector-curvature="0" />
    <path
       style="opacity:0.01000001;fill:none;fill-opacity:1;stroke:none;stroke-width:0.16232108;stroke-opacity:1"
       d="m 38.471813,271.6701 0.860056,-1.27993 1.010472,0.67899 1.01047,0.679 -0.860056,1.27993 -0.860056,1.27993 -1.01047,-0.679 -1.010472,-0.67899 z"
       id="path9221"
       inkscape:connector-curvature="0" />
    <path
       style="opacity:0.01000001;fill:none;fill-opacity:1;stroke:none;stroke-width:0.02672695;stroke-opacity:1"
       d="m 38.390775,271.69118 0.894396,-1.33103 1.075917,0.72297 1.075918,0.72297 -0.894395,1.33103 -0.894394,1.33103 -1.075917,-0.72297 -1.075918,-0.72297 z"
       id="path9223"
       inkscape:connector-curvature="0" />
  </g>
</svg>
